<svg xmlns="http://www.w3.org/2000/svg" viewBox="0 0 960 520" width="960" height="520"><style>@import url("https://fonts.googleapis.com/css2?family=Baloo+2:wght@600;700;800&amp;family=Nunito+Sans:wght@400;600;700&amp;display=swap");.d{font-family:'Baloo 2', 'Trebuchet MS', sans-serif}.t{font-family:'Nunito Sans', 'Helvetica Neue', Arial, sans-serif}</style><title>Lootlark palette</title><rect width="960" height="520" fill="#FFFFFF"/><text class="d" x="40" y="62" font-size="30" fill="#1A2140">Lootlark palette</text><text class="t" x="40" y="90" font-size="15" fill="#56607F">Exact hex values. Label colour on each swatch is the pairing to use for text on it.</text><rect x="40" y="120" width="136" height="170" rx="16" fill="#2B4FD8" stroke="#D9D6E0"/><text class="t" x="54" y="248" font-size="14" font-weight="600" fill="#FFFFFF">Primary</text><text class="t" x="54" y="270" font-size="14" fill="#FFFFFF">#2B4FD8</text><rect x="190" y="120" width="136" height="170" rx="16" fill="#FFC83D" stroke="#D9D6E0"/><text class="t" x="204" y="248" font-size="14" font-weight="600" fill="#1A2140">Accent</text><text class="t" x="204" y="270" font-size="14" fill="#1A2140">#FFC83D</text><rect x="340" y="120" width="136" height="170" rx="16" fill="#8A6200" stroke="#D9D6E0"/><text class="t" x="354" y="248" font-size="14" font-weight="600" fill="#FFFFFF">Accent text</text><text class="t" x="354" y="270" font-size="14" fill="#FFFFFF">#8A6200</text><rect x="490" y="120" width="136" height="170" rx="16" fill="#1A2140" stroke="#D9D6E0"/><text class="t" x="504" y="248" font-size="14" font-weight="600" fill="#FFFFFF">Ink</text><text class="t" x="504" y="270" font-size="14" fill="#FFFFFF">#1A2140</text><rect x="640" y="120" width="136" height="170" rx="16" fill="#56607F" stroke="#D9D6E0"/><text class="t" x="654" y="248" font-size="14" font-weight="600" fill="#FFFFFF">Muted</text><text class="t" x="654" y="270" font-size="14" fill="#FFFFFF">#56607F</text><rect x="790" y="120" width="136" height="170" rx="16" fill="#137A43" stroke="#D9D6E0"/><text class="t" x="804" y="248" font-size="14" font-weight="600" fill="#FFFFFF">Success</text><text class="t" x="804" y="270" font-size="14" fill="#FFFFFF">#137A43</text><rect x="40" y="310" width="136" height="170" rx="16" fill="#F59E0B" stroke="#D9D6E0"/><text class="t" x="54" y="438" font-size="14" font-weight="600" fill="#1A2140">Warning</text><text class="t" x="54" y="460" font-size="14" fill="#1A2140">#F59E0B</text><rect x="190" y="310" width="136" height="170" rx="16" fill="#C8323A" stroke="#D9D6E0"/><text class="t" x="204" y="438" font-size="14" font-weight="600" fill="#FFFFFF">Danger</text><text class="t" x="204" y="460" font-size="14" fill="#FFFFFF">#C8323A</text><rect x="340" y="310" width="136" height="170" rx="16" fill="#F5F7FC" stroke="#D9D6E0"/><text class="t" x="354" y="438" font-size="14" font-weight="600" fill="#1A2140">Surface light</text><text class="t" x="354" y="460" font-size="14" fill="#1A2140">#F5F7FC</text><rect x="490" y="310" width="136" height="170" rx="16" fill="#0E1324" stroke="#D9D6E0"/><text class="t" x="504" y="438" font-size="14" font-weight="600" fill="#E8ECF8">Surface dark</text><text class="t" x="504" y="460" font-size="14" fill="#E8ECF8">#0E1324</text><rect x="640" y="310" width="136" height="170" rx="16" fill="#7C9BFF" stroke="#D9D6E0"/><text class="t" x="654" y="438" font-size="14" font-weight="600" fill="#0E1324">Primary (dark mode)</text><text class="t" x="654" y="460" font-size="14" fill="#0E1324">#7C9BFF</text><rect x="790" y="310" width="136" height="170" rx="16" fill="#E8ECF8" stroke="#D9D6E0"/><text class="t" x="804" y="438" font-size="14" font-weight="600" fill="#0E1324">Text (dark mode)</text><text class="t" x="804" y="460" font-size="14" fill="#0E1324">#E8ECF8</text></svg>
